<svg width="114" height="114" viewBox="0 0 114 114" fill="none" xmlns="http://www.w3.org/2000/svg">
<path d="M10.2219 34.3749V78.6996C10.2219 81.5491 11.7144 84.1271 14.202 85.5745L52.6017 107.737C55.0441 109.139 58.0745 109.139 60.5168 107.737L98.9165 85.5745C101.359 84.1724 102.897 81.5491 102.897 78.6996V34.3749C102.897 31.5255 101.404 28.9474 98.9165 27.5001L60.5168 5.33771C58.0745 3.93561 55.0441 3.93561 52.6017 5.33771L14.202 27.5001C11.7597 28.9022 10.2671 31.5255 10.2671 34.3749H10.2219Z" fill="#213147"/>
<path d="M64.9039 65.1301L59.4312 80.1463C59.2955 80.5533 59.2955 81.0056 59.4312 81.4579L68.8389 107.284L79.7391 100.997L66.6679 65.1301C66.3513 64.316 65.2205 64.316 64.9039 65.1301Z" fill="#12AAFF"/>
<path d="M75.8947 39.8918C75.5781 39.0777 74.4474 39.0777 74.1308 39.8918L68.658 54.908C68.5224 55.315 68.5224 55.7673 68.658 56.2196L84.0812 98.509L94.9815 92.2221L75.8947 39.9371V39.8918Z" fill="#12AAFF"/>
<path d="M56.5367 7.01054C56.808 7.01054 57.0794 7.101 57.3056 7.23669L98.8261 31.2082C99.3236 31.4796 99.595 32.0223 99.595 32.5651V80.5081C99.595 81.0509 99.2783 81.5937 98.8261 81.865L57.3056 105.837C57.0794 105.972 56.808 106.063 56.5367 106.063C56.2653 106.063 55.9939 105.972 55.7678 105.837L14.2473 81.865C13.7498 81.5937 13.4784 81.0509 13.4784 80.5081V32.5199C13.4784 31.9771 13.795 31.4344 14.2473 31.163L55.7678 7.19146C55.9939 7.05577 56.2653 6.96531 56.5367 6.96531V7.01054ZM56.5367 0C55.0441 0 53.5968 0.361834 52.2399 1.13073L10.7194 25.1023C8.05086 26.6401 6.42261 29.4443 6.42261 32.5199V80.4629C6.42261 83.5385 8.05086 86.3427 10.7194 87.8805L52.2399 111.852C53.5515 112.621 55.0441 112.983 56.5367 112.983C58.0292 112.983 59.4766 112.621 60.8334 111.852L102.354 87.8805C105.022 86.3427 106.651 83.5385 106.651 80.4629V32.5199C106.651 29.4443 105.022 26.6401 102.354 25.1023L60.7882 1.13073C59.4766 0.361834 57.984 0 56.4914 0H56.5367Z" fill="#9DCCED"/>
<path d="M29.0369 98.5547L32.8814 88.0615L40.5703 94.4389L33.3789 101.042L29.0369 98.5547Z" fill="#213147"/>
<path d="M53.0088 29.1274H42.4704C41.7015 29.1274 40.9778 29.6249 40.7064 30.3486L18.137 92.2223L29.0373 98.5091L53.9134 30.3486C54.1395 29.7154 53.6873 29.0822 53.054 29.0822L53.0088 29.1274Z" fill="white"/>
<path d="M71.4625 29.1274H60.924C60.1551 29.1274 59.4315 29.6249 59.1601 30.3486L33.3794 100.997L44.2797 107.284L72.3218 30.3486C72.548 29.7154 72.0957 29.0822 71.4625 29.0822V29.1274Z" fill="white"/>
</svg>
