<svg width="118" height="118" viewBox="0 0 118 118" fill="none" xmlns="http://www.w3.org/2000/svg">
<path d="M57.3349 0H60.0349C60.1264 0.0228817 60.218 0.0457635 60.3095 0.0686452C60.8358 0.091527 61.362 0.091527 61.8883 0.13729C63.2383 0.251699 64.5884 0.320344 65.9384 0.503398C67.6316 0.732216 69.3478 1.0068 71.041 1.35002C74.7479 2.128 78.3632 3.27209 81.8412 4.78228C98.4534 11.9443 110.832 26.3598 115.386 43.8643C115.935 45.9465 116.347 48.0745 116.667 50.2025C116.85 51.461 116.988 52.7424 117.079 54.0009C117.171 54.9848 117.171 55.9916 117.216 56.9755C117.239 57.0671 117.262 57.1357 117.285 57.2272V59.9273C117.262 59.973 117.239 60.0188 117.216 60.0875C117.194 60.6595 117.194 61.2315 117.148 61.8036C117.056 62.9706 117.01 64.1375 116.85 65.3045C116.599 67.1808 116.324 69.0342 115.958 70.8876C115.02 75.3496 113.555 79.6742 111.587 83.7701C107.629 92.0761 101.794 99.3068 94.5177 104.913C88.3167 109.741 81.2234 113.242 73.6267 115.21C70.3546 116.079 67.0367 116.651 63.6502 116.903C62.2087 117.017 60.7671 117.063 59.3256 117.132C58.5934 117.155 57.8383 117.132 57.106 117.086C55.7789 117.017 54.4289 116.971 53.1017 116.834C51.7517 116.697 50.4017 116.514 49.0517 116.308C46.1914 115.85 43.377 115.187 40.6312 114.271C21.891 108.231 7.49841 93.1745 2.23561 74.2284C1.2517 70.7275 0.611008 67.1579 0.336427 63.5197C0.2449 62.1697 0.153373 60.7968 0.107609 59.4468C0.0847277 58.6459 0.107609 57.8222 0.153373 57.0213C0.2449 55.4653 0.313545 53.9323 0.450836 52.3992C0.588126 50.9576 0.794062 49.4932 1.04576 48.0745C1.66357 44.5736 2.6246 41.1414 3.90598 37.8235C10.6561 20.0902 25.575 6.70435 43.949 1.92207C46.0313 1.3729 48.1593 0.961033 50.2873 0.640689C51.5458 0.457635 52.8272 0.320344 54.0856 0.228817C55.0924 0.13729 56.0992 0.13729 57.0832 0.091527C57.1976 0.0457635 57.2662 0.0228817 57.3349 0ZM58.662 101.686C82.459 101.801 101.657 82.3514 101.817 59.0807C101.977 34.8718 82.5963 15.7655 59.2112 15.5138C34.7048 15.2621 15.8503 34.8489 15.5986 58.0739C15.324 82.5116 35.1624 101.778 58.662 101.686Z" fill="black"/>
<path d="M58.6618 101.687C35.1623 101.801 15.3238 82.5347 15.5755 58.0742C15.8272 34.8721 34.6818 15.2624 59.1881 15.5141C82.5733 15.7658 101.954 34.8721 101.794 59.081C101.68 82.3517 82.4817 101.778 58.6618 101.687ZM81.8182 45.5807C81.6809 45.4663 81.5894 45.3748 81.4978 45.3061C81.0173 44.94 80.5597 44.5511 80.0792 44.1849C73.1002 38.7849 65.1374 34.7577 56.6483 32.3322C52.8499 31.211 48.9371 30.5474 45.0014 30.3415C43.537 30.2728 42.0726 30.3415 40.6081 30.3872C39.1666 30.433 37.725 30.6161 36.3064 30.9135C33.858 31.4169 31.5241 32.2178 29.3961 33.5449C27.3825 34.7805 25.735 36.5424 24.6596 38.6704C23.5155 40.9357 23.2867 43.3841 23.5384 45.8782C23.7443 47.6858 24.2248 49.4706 24.9113 51.141C26.1011 54.1385 27.7944 56.8385 29.7622 59.4013C31.8444 62.0785 34.1784 64.5268 36.7411 66.7235C37.4505 67.3641 38.5259 67.4099 39.2581 66.7921C43.1251 63.7488 47.1752 60.9801 51.4083 58.486C52.3694 57.9598 52.9643 56.9758 52.9872 55.9004C53.0787 54.4588 53.1702 52.9944 53.2846 51.5529C53.3762 50.4317 53.4906 49.3105 53.6507 48.1892C53.9253 46.3816 54.2228 44.551 54.5889 42.7663C55.0923 40.1806 55.7787 37.6179 56.6483 35.1238C56.7855 34.5517 57.3805 34.2085 57.9525 34.3458C57.9983 34.3687 58.044 34.3687 58.0898 34.3916C58.5017 34.5288 58.9364 34.6661 59.3483 34.8034C60.1263 35.0551 60.4009 35.5814 60.1263 36.3594C58.822 40.3179 57.8839 44.3909 57.3576 48.5096C57.1059 50.4545 56.9228 52.3995 56.7627 54.3444C56.6483 55.9919 56.6254 57.6623 56.5796 59.3098C56.5567 60.2479 56.6025 61.209 56.6254 62.1471C56.6254 62.6734 56.6483 63.1768 56.6711 63.7031C56.7855 65.4192 56.8771 67.1353 57.0372 68.8286C57.1516 70.1328 57.3118 71.4371 57.5178 72.7414C57.8152 74.549 58.2042 76.3567 58.5703 78.1643C58.7763 79.1254 58.3873 79.9033 57.472 80.2923C56.8084 80.5669 56.1449 80.8186 55.4813 81.0932C54.5431 81.4822 53.4677 81.4593 52.5753 81.0017C49.2117 79.4457 45.9625 77.7067 42.8048 75.7618C36.9242 72.032 31.6156 67.6387 27.2452 62.17C25.0257 59.3784 23.1265 56.3809 21.7536 53.0859C21.4104 52.2393 21.1129 51.3698 20.8154 50.5003C20.7468 50.2944 20.6324 50.1113 20.4036 50.18C20.2663 50.2257 20.129 50.3401 20.0832 50.4774C19.6027 52.5368 19.3281 54.619 19.2595 56.7241C19.2137 58.4631 19.2595 60.225 19.3739 61.9641C19.4654 63.3598 19.6485 64.7327 19.9231 66.1056C20.4722 69.1032 21.3875 72.032 22.646 74.8007C23.5155 76.6999 24.5223 78.5304 25.6664 80.2695C25.8265 80.6127 26.1926 80.7957 26.5588 80.75C26.902 80.7042 27.1994 80.4525 27.291 80.1093C27.4283 79.8118 27.5656 79.5144 27.7257 79.2169C29.1673 76.6084 31.0665 74.3431 33.1716 72.238C33.675 71.7574 34.4758 71.7117 35.025 72.1464C35.2538 72.3066 35.4598 72.4897 35.6657 72.6498C36.2835 73.1075 36.4208 73.977 35.9632 74.5948C35.9174 74.6634 35.8487 74.7321 35.7801 74.8007C34.3385 76.2194 33.0343 77.7753 31.8902 79.4228C31.0665 80.6584 30.3114 81.9398 29.991 83.4043C29.6478 84.9145 30.1054 85.8755 31.5012 86.5162C32.5538 86.9738 33.675 87.2255 34.8191 87.2484C35.8487 87.2941 36.8784 87.2942 37.8852 87.2026C39.5098 87.0424 41.1573 86.8594 42.759 86.5391C46.5803 85.7611 50.3558 84.6856 53.994 83.2898C59.1881 81.3449 64.245 79.0567 69.1417 76.4253C74.9537 73.3363 80.4681 69.7667 85.6394 65.7167C85.914 65.5336 86.0742 65.2133 86.0742 64.8929C86.1428 63.5658 86.2572 62.2386 86.303 60.9344C86.3488 59.7903 86.3488 58.6462 86.3716 57.5021C86.3716 56.9987 86.3488 56.4953 86.3259 55.9919C86.2801 54.8707 86.2801 53.7495 86.2115 52.6283C86.1199 51.2554 86.0055 49.8825 85.8454 48.5325C85.6623 46.9765 85.4564 45.3977 85.2047 43.8417C84.6555 40.4552 83.786 37.1374 82.619 33.911C81.7038 31.3712 80.5597 28.9457 79.0037 26.7491C77.9969 25.3075 76.83 23.9804 75.3198 23.0422C73.6036 21.9668 71.796 21.6693 69.851 22.4015C68.7298 22.8592 67.7001 23.5227 66.8306 24.3693C65.3204 25.788 64.1535 27.4813 63.1238 29.2889C62.7577 29.9525 62.9407 30.4788 63.6501 30.7534C70.1485 33.2703 76.2808 36.6797 81.8411 40.89C82.7106 41.5307 83.3055 42.4688 83.5114 43.5214C83.6945 44.4366 83.8547 45.329 83.9691 46.2443C84.1521 47.7316 83.3741 48.9215 82.0241 49.2647C77.8596 50.3172 73.7867 51.6673 69.8281 53.2919C66.2357 54.7563 62.7119 56.4038 59.2797 58.2114C58.5932 58.5547 58.0898 58.2343 58.0898 57.4792C58.1127 56.8843 58.1584 56.3123 58.1584 55.7173C58.1584 54.9165 58.5017 54.4131 59.2568 54.0699C61.4534 53.0631 63.6043 51.9876 65.801 51.0266C70.2171 49.0588 74.7706 47.4341 79.4385 46.1528C80.2393 45.9697 80.9944 45.7867 81.8182 45.5807ZM58.639 98.0715C60.3093 98.0486 61.9797 97.9342 63.6501 97.7053C63.9246 97.7053 64.1535 97.5223 64.245 97.2706C64.3136 97.0189 64.1992 96.7443 63.9933 96.607C62.2314 95.1197 60.8814 93.312 59.7144 91.3442C58.8678 89.8798 58.1127 88.3696 57.472 86.8136C57.2432 86.2645 56.8542 86.1043 56.305 86.3102C52.0719 87.9348 47.7244 89.2391 43.2853 90.1544C41.4777 90.5205 39.67 90.7722 37.8166 90.8866C37.5191 90.9095 37.2903 90.9781 37.1988 91.2756C37.1072 91.573 37.2903 91.7561 37.542 91.8934C38.2971 92.351 39.0293 92.8086 39.8073 93.2434C44.3379 95.7375 49.3261 97.2935 54.4516 97.8198C55.8474 97.957 57.2432 97.9799 58.639 98.0715ZM58.044 28.8084C58.9135 28.8084 59.4398 28.4881 59.783 27.8703C60.6068 26.3372 61.5907 24.8956 62.6661 23.5456C63.4899 22.5159 64.4052 21.6007 65.4348 20.7769C65.6408 20.6396 65.7323 20.3879 65.6637 20.1362C65.6179 19.9074 65.412 19.7244 65.1831 19.6786C65.0459 19.6557 64.9086 19.6328 64.7713 19.6099C63.1924 19.4498 61.6365 19.2667 60.0576 19.1752C58.9364 19.1294 57.8152 19.1294 56.694 19.221C55.1838 19.3354 53.6965 19.4727 52.2092 19.6786C48.7312 20.2278 45.3218 21.2574 42.1183 22.7447C39.9217 23.7515 37.8395 24.9643 35.8716 26.3601C35.6886 26.4974 35.5284 26.6346 35.6199 26.8863C35.7115 27.1152 35.9174 27.138 36.1233 27.0923C37.8623 26.7719 39.6014 26.5889 41.3632 26.5431C42.8506 26.5202 44.3379 26.566 45.8252 26.6346C47.221 26.7262 48.6168 26.8635 50.0125 27.0465C52.3465 27.3669 54.6575 27.8474 56.9228 28.4881C57.3805 28.6711 57.7695 28.7626 58.044 28.8084ZM70.9265 95.7604C71.3841 95.6917 71.8646 95.646 72.2994 95.5316C73.7638 95.1655 74.9536 94.3646 76.0291 93.3578C77.9054 91.5959 79.2554 89.4679 80.3995 87.1797C80.5597 86.8823 80.4453 86.4933 80.1478 86.3331C80.0334 86.2874 79.919 86.2416 79.8046 86.2645C79.0495 86.2874 78.2944 86.356 77.5393 86.356C76.3266 86.356 75.1138 86.3331 73.924 86.2416C72.6884 86.1729 71.4299 86.0814 70.2171 85.8755C68.3866 85.6009 66.5789 85.2577 64.7713 84.8916C63.856 84.7085 62.9407 84.4339 62.0255 84.2051C61.6822 84.0907 61.2932 84.1822 61.0415 84.4568C60.8127 84.7314 60.767 85.1204 60.95 85.4178C61.6365 86.7679 62.2543 88.1637 62.9865 89.4908C63.9475 91.2985 65.2747 92.8773 66.8993 94.1587C68.0662 95.1197 69.3705 95.7146 70.9265 95.7604ZM52.8956 61.8954C51.3397 62.5132 41.6836 69.2405 41.0658 70.1328C45.3218 73.199 49.8981 75.7618 54.7262 77.8211C53.5821 72.5812 52.9872 67.2497 52.8956 61.8954ZM76.5325 82.7407C77.3334 82.7178 78.1342 82.6949 78.9351 82.6492C79.7359 82.6034 80.5139 82.4661 81.3148 82.4203C82.2072 82.3746 82.6877 81.9169 82.9623 81.0932C83.9691 77.9813 84.747 74.8007 85.2733 71.5744C85.3191 71.3456 85.3191 71.1396 85.1131 71.0023C84.9072 70.8879 84.7242 70.9795 84.5411 71.1167C83.8775 71.5973 83.214 72.0778 82.5275 72.5354C77.9054 75.6931 73.0773 78.5533 68.0891 81.0932C67.8832 81.1847 67.723 81.322 67.7459 81.5508C67.7688 81.8025 67.9747 81.8941 68.2035 81.9398C70.9493 82.4432 73.7409 82.7178 76.5325 82.7407ZM96.0735 68.8743C96.0277 68.2108 96.0049 67.5243 95.8904 66.8608C95.7074 65.8082 95.5015 64.7785 95.2269 63.7488C95.0438 63.0624 94.2658 62.9022 93.7396 63.3827C92.6184 64.4353 91.4743 65.4878 90.3531 66.5404C89.9412 66.8836 89.6666 67.3413 89.5293 67.8675C89.4149 68.3709 89.3463 68.8972 89.2776 69.4235C89.0259 70.9566 88.8429 72.4897 88.5225 73.9999C88.1564 75.8533 87.6759 77.6838 87.2411 79.5144C87.1039 79.9262 87.3327 80.3839 87.7445 80.5211C87.9505 80.5898 88.1793 80.5669 88.3852 80.4525C88.5683 80.361 88.7285 80.2695 88.9115 80.2008C90.7878 79.2169 92.4353 77.9584 93.6938 76.2423C95.2726 74.1143 96.1193 71.5286 96.0735 68.8743ZM94.5862 44.6197C95.1125 44.6426 95.3871 44.2765 95.2269 43.7731C95.204 43.6815 95.1582 43.59 95.1125 43.4985C93.465 39.5399 91.1768 35.8789 88.3395 32.6525C87.5386 31.7373 86.6691 30.8906 85.8225 30.044C85.7081 29.9525 85.5479 29.9296 85.3877 29.9754C85.2276 30.044 85.136 30.2271 85.2047 30.3872C85.2047 30.4101 85.2047 30.4101 85.2276 30.433C85.2962 30.5703 85.342 30.7305 85.3877 30.8678C86.9208 34.6661 88.042 38.6247 88.7513 42.6747C88.8886 43.6815 89.7581 44.4366 90.7878 44.3909C91.4514 44.3909 92.1378 44.4138 92.8014 44.4595C93.3963 44.4824 93.9913 44.551 94.5862 44.6197ZM91.7031 48.0062C91.5658 48.0062 91.4514 48.0062 91.3141 48.0062C91.0166 47.9604 90.7421 48.1206 90.6276 48.3952C90.4904 48.6926 90.6276 48.9215 90.8107 49.1274C91.2683 49.6766 91.7488 50.2028 92.1607 50.7749C93.076 52.0105 93.9684 53.269 94.8608 54.5275C95.2269 55.0309 95.8904 55.0309 96.2108 54.5046C96.6913 53.7037 97.0345 52.8114 97.2405 51.919C97.5837 50.363 97.0803 49.3791 95.6616 48.7613C95.6387 48.7384 95.6159 48.7384 95.5701 48.7384C94.3345 48.1892 93.0302 48.052 91.7031 48.0062ZM90.0327 60.8886H89.987C89.987 60.9115 89.987 60.9573 89.987 60.9801C89.987 61.1861 89.9641 61.392 90.1929 61.4835C90.4217 61.5751 90.5819 61.4607 90.7192 61.3005C91.337 60.6598 91.9548 60.042 92.5497 59.4013C93.0073 58.9208 93.0531 58.5776 92.7099 58.0284C92.0921 57.0216 91.4514 56.0606 90.8107 55.0766C90.6734 54.8707 90.5132 54.7563 90.2844 54.825C90.0556 54.8936 90.0098 55.0995 90.0098 55.3284C90.0327 57.1818 90.0327 59.0352 90.0327 60.8886ZM84.747 88.095C84.8386 88.0492 84.9072 88.0035 84.9759 87.9577C85.1818 87.7747 85.4106 87.5916 85.5937 87.3857C86.2115 86.7907 86.8293 86.1958 87.4242 85.578C87.5157 85.4636 87.5615 85.3034 87.5157 85.1433C87.47 84.9373 87.2869 84.8916 87.081 84.9145C87.0352 84.9145 87.0123 84.9145 86.9666 84.9373C86.4632 85.0746 85.9598 85.2348 85.4564 85.395C85.342 85.4407 85.2276 85.5094 85.1589 85.6238C84.8615 86.2874 84.564 86.928 84.2894 87.6145C84.2208 87.8433 84.4038 88.095 84.747 88.095ZM98.1557 59.2182C98.1329 59.1038 98.1329 58.9894 98.1329 58.875C98.1329 58.8064 98.0871 58.7148 98.0413 58.692C97.9727 58.692 97.904 58.7148 97.8354 58.7606C97.5151 59.0123 97.4693 59.4699 97.721 59.7903C97.721 59.8132 97.7439 59.8132 97.7439 59.8361C97.8583 59.9733 98.0184 59.9505 98.0642 59.7674C98.11 59.5844 98.1329 59.4242 98.1557 59.2182Z" fill="white"/>
<path d="M81.8186 45.5799C80.9948 45.7859 80.2168 45.9689 79.4617 46.1748C74.7938 47.4562 70.2404 49.0808 65.8242 51.0487C63.6276 52.0326 61.4767 53.108 59.28 54.0919C58.5478 54.4352 58.1817 54.9386 58.1817 55.7394C58.1817 56.3343 58.1359 56.9064 58.1131 57.5013C58.0902 58.2564 58.6165 58.5996 59.3029 58.2335C62.7352 56.4259 66.259 54.7784 69.8514 53.3139C73.8099 51.6665 77.8829 50.3393 82.0474 49.2868C83.3974 48.9435 84.1754 47.7537 83.9923 46.2664C83.8779 45.3511 83.7177 44.4358 83.5347 43.5434C83.3287 42.4909 82.7338 41.5527 81.8643 40.912C76.304 36.7018 70.1717 33.2924 63.6733 30.7754C62.964 30.5008 62.7809 29.9517 63.147 29.311C64.1767 27.5033 65.3437 25.833 66.8539 24.3914C67.7234 23.5448 68.7531 22.8812 69.8743 22.4236C71.7963 21.6685 73.6269 21.966 75.343 23.0643C76.8532 24.0253 78.0202 25.3296 79.027 26.7711C80.5829 28.9907 81.7041 31.4161 82.6423 33.9331C83.8093 37.1594 84.6788 40.4773 85.2279 43.8638C85.4796 45.4197 85.6856 46.9757 85.8686 48.5545C86.0288 49.9275 86.1432 51.2775 86.2347 52.6504C86.3034 53.7716 86.3262 54.8928 86.3491 56.014C86.372 56.5174 86.3949 57.0208 86.3949 57.5242C86.3949 58.6683 86.372 59.8124 86.3262 60.9564C86.2805 62.2836 86.1661 63.6107 86.0974 64.915C86.0974 65.2353 85.9373 65.5557 85.6627 65.7387C80.4914 69.7888 74.954 73.3584 69.1649 76.4474C64.2911 79.0788 59.2114 81.367 54.0172 83.3119C50.3561 84.7077 46.6035 85.7831 42.7823 86.5611C41.1806 86.8815 39.5331 87.0645 37.9085 87.2247C36.8788 87.3162 35.872 87.3391 34.8423 87.2705C33.6982 87.2476 32.577 86.9959 31.5245 86.5382C30.1287 85.8747 29.671 84.9136 30.0143 83.4263C30.3575 81.9619 31.0897 80.6805 31.9135 79.4449C33.0804 77.7974 34.3847 76.2415 35.8034 74.8228C36.3754 74.2965 36.4212 73.427 35.8949 72.855C35.8262 72.7863 35.7576 72.7177 35.6889 72.6719C35.483 72.4888 35.2771 72.3287 35.0483 72.1685C34.4991 71.7337 33.6982 71.7795 33.1948 72.26C31.1126 74.3652 29.1905 76.6076 27.749 79.239C27.5888 79.5364 27.4286 79.8339 27.3142 80.1314C27.1998 80.4746 26.9252 80.7034 26.582 80.772C26.2159 80.8178 25.8498 80.6348 25.6896 80.2915C24.5455 78.5525 23.5387 76.722 22.6692 74.8228C21.4107 72.0541 20.4955 69.1252 19.9463 66.1277C19.6946 64.7548 19.5116 63.3819 19.3971 61.9861C19.2827 60.2471 19.237 58.4852 19.2827 56.7462C19.3514 54.6411 19.626 52.5588 20.1065 50.4995C20.1522 50.3622 20.2895 50.2478 20.4268 50.202C20.6556 50.1334 20.77 50.3164 20.8387 50.5224C21.159 51.3919 21.4336 52.2614 21.7768 53.108C23.1497 56.403 25.0489 59.4005 27.2685 62.1921C31.6389 67.6608 36.9246 72.0541 42.828 75.7838C45.9628 77.7288 49.2349 79.4907 52.5986 81.0237C53.5138 81.4814 54.5664 81.5043 55.5045 81.1153C56.1681 80.8407 56.8317 80.589 57.4953 80.3144C58.4105 79.9254 58.7995 79.1474 58.5936 78.1864C58.2275 76.3787 57.8614 74.594 57.541 72.7634C57.3122 71.4592 57.1749 70.1549 57.0605 68.8507C56.9003 67.1345 56.8088 65.4413 56.6944 63.7251C56.6715 63.1989 56.6486 62.6955 56.6486 62.1692C56.6257 61.231 56.58 60.27 56.6029 59.3318C56.6486 57.6844 56.6715 56.014 56.7859 54.3665C56.9232 52.4216 57.1063 50.4766 57.3808 48.5317C57.9071 44.3901 58.8453 40.3171 60.1495 36.3815C60.4241 35.6035 60.1495 35.0772 59.3716 34.8255C58.9597 34.6882 58.5478 34.5509 58.1131 34.4136C57.5639 34.1848 56.9461 34.4594 56.7173 35.0086C56.6944 35.0543 56.6944 35.1001 56.6715 35.1458C55.8249 37.64 55.1384 40.2027 54.6122 42.7883C54.2689 44.596 53.9486 46.4037 53.674 48.2113C53.5138 49.3325 53.3994 50.4537 53.3079 51.5749C53.1935 53.0165 53.102 54.458 53.0104 55.9225C52.9875 56.9979 52.3697 58.0047 51.4316 58.5081C47.1985 61.0022 43.1484 63.7709 39.2814 66.8142C38.5263 67.4091 37.4508 67.3862 36.7644 66.7455C34.2016 64.5489 31.8677 62.1005 29.7855 59.4234C27.8176 56.8835 26.1473 54.1606 24.9345 51.1631C24.2481 49.4698 23.7676 47.7079 23.5616 45.9003C23.287 43.4062 23.5387 40.9578 24.6828 38.6925C25.7583 36.5874 27.3829 34.8026 29.4193 33.567C31.5474 32.2399 33.8813 31.439 36.3296 30.9356C37.7483 30.6381 39.1899 30.4551 40.6314 30.4093C42.0958 30.3636 43.5603 30.2949 45.0247 30.3636C48.9832 30.5695 52.896 31.2331 56.6715 32.3543C65.1606 34.7797 73.1235 38.8069 80.1024 44.207C80.5829 44.5731 81.0406 44.9621 81.5211 45.3282C81.6126 45.374 81.6813 45.4426 81.8186 45.5799Z" fill="black"/>
<path d="M58.6388 98.0713C57.243 97.9798 55.8472 97.9569 54.4743 97.8196C49.3259 97.2934 44.3606 95.7374 39.83 93.2433C39.052 92.8314 38.3198 92.3509 37.5647 91.8933C37.3359 91.756 37.1528 91.5729 37.2215 91.2755C37.313 90.978 37.5418 90.9094 37.8393 90.8865C39.6698 90.7721 41.5003 90.5204 43.308 90.1543C47.7471 89.239 52.0946 87.9576 56.3277 86.3101C56.8769 86.1042 57.2659 86.2644 57.4947 86.8135C58.1354 88.3695 58.8905 89.8797 59.7371 91.3441C60.9041 93.3119 62.2541 95.1196 64.016 96.6069C64.2448 96.7442 64.3363 97.0188 64.2677 97.2705C64.1762 97.5222 63.9473 97.7052 63.6728 97.7052C61.9795 97.9112 60.3091 98.0485 58.6388 98.0713Z" fill="black"/>
<path d="M58.0439 28.8085C57.7922 28.7399 57.3803 28.6712 56.9684 28.5568C54.7031 27.939 52.3921 27.4585 50.0581 27.1152C48.6624 26.9322 47.2666 26.772 45.8708 26.7034C44.3835 26.6118 42.8962 26.5661 41.4088 26.6118C39.6469 26.6576 37.8851 26.8407 36.1689 27.161C35.9401 27.2068 35.757 27.1839 35.6655 26.9551C35.574 26.7034 35.7342 26.5661 35.9172 26.4288C37.8851 25.033 39.9673 23.8203 42.1639 22.8135C45.3674 21.3262 48.7539 20.2736 52.2548 19.7473C53.7421 19.5185 55.2523 19.3812 56.7396 19.2897C57.8608 19.1982 58.982 19.1982 60.1032 19.2439C61.6821 19.3355 63.238 19.5185 64.8169 19.6787C64.9541 19.7016 65.0914 19.7244 65.2287 19.7473C65.4804 19.7702 65.6635 19.9533 65.7093 20.205C65.7779 20.4567 65.6864 20.7084 65.4804 20.8456C64.4508 21.6694 63.5355 22.5847 62.7117 23.6143C61.6134 24.9644 60.6524 26.4288 59.8286 27.939C59.4397 28.511 58.9134 28.8085 58.0439 28.8085Z" fill="black"/>
<path d="M70.9264 95.7595C69.3705 95.7138 68.0662 95.0959 66.8764 94.1807C65.2746 92.8993 63.9475 91.3205 62.9636 89.5128C62.2085 88.1857 61.5907 86.7899 60.9271 85.4398C60.744 85.1424 60.7669 84.7534 61.0186 84.4788C61.2703 84.2042 61.6593 84.0898 62.0025 84.2271C62.9178 84.4559 63.8331 84.7305 64.7484 84.9136C66.556 85.2797 68.3866 85.6229 70.1942 85.8975C71.4298 86.0805 72.6654 86.1721 73.9011 86.2636C75.1138 86.3322 76.3265 86.3551 77.5164 86.378C78.2715 86.378 79.0266 86.3094 79.7817 86.2865C80.1249 86.2636 80.4224 86.5153 80.4681 86.8585C80.4681 86.9729 80.4452 87.0873 80.3995 87.2017C79.2554 89.4899 77.8825 91.6179 76.0291 93.3798C74.9536 94.3866 73.7638 95.2104 72.2993 95.5536C71.8646 95.6451 71.3841 95.6909 70.9264 95.7595Z" fill="black"/>
<path d="M52.8957 61.8945C52.9644 67.2489 53.5822 72.6032 54.7263 77.8431C49.8982 75.7838 45.3219 73.1981 41.0659 70.1548C41.6837 69.2396 51.3398 62.5123 52.8957 61.8945Z" fill="black"/>
<path d="M76.5326 82.7398C73.741 82.7169 70.9494 82.4424 68.2036 81.939C67.9748 81.8932 67.7689 81.8017 67.746 81.55C67.7231 81.3212 67.8833 81.2067 68.0892 81.0923C73.0774 78.5525 77.9055 75.6923 82.5276 72.5346C83.1912 72.0769 83.8776 71.5964 84.5412 71.1159C84.7242 71.0015 84.8844 70.8871 85.1132 71.0015C85.342 71.1388 85.3192 71.3218 85.2734 71.5735C84.7471 74.7999 83.9691 77.9804 82.9623 81.0923C82.6878 81.9161 82.2072 82.3737 81.3149 82.4195C80.514 82.4653 79.736 82.5797 78.9352 82.6483C78.1343 82.6941 77.3334 82.7169 76.5326 82.7398Z" fill="black"/>
<path d="M96.0736 68.8739C96.0964 71.5281 95.2727 74.1138 93.6939 76.2418C92.4354 77.9579 90.7879 79.2164 88.9116 80.2003C88.7285 80.2918 88.5683 80.3834 88.3853 80.452C87.9963 80.658 87.5158 80.5207 87.3099 80.1546C87.1954 79.9486 87.1726 79.7198 87.2412 79.5139C87.676 77.6833 88.1336 75.8528 88.5226 73.9994C88.82 72.4892 89.026 70.9561 89.2777 69.423C89.3692 68.8967 89.415 68.3705 89.5294 67.8671C89.6667 67.3637 89.9641 66.8831 90.3531 66.5399C91.4743 65.4874 92.6184 64.4348 93.7396 63.3822C94.243 62.9017 95.0439 63.0619 95.2269 63.7483C95.5015 64.778 95.7075 65.8077 95.8905 66.8603C96.0278 67.5238 96.0278 68.2103 96.0736 68.8739Z" fill="black"/>
<path d="M94.5862 44.6193C93.9913 44.5736 93.3964 44.4821 92.7786 44.4592C92.115 44.4134 91.4286 44.4134 90.765 44.3905C89.7353 44.4363 88.8658 43.6812 88.7285 42.6744C88.0192 38.6243 86.898 34.6887 85.3649 30.8674C85.2963 30.7301 85.2505 30.57 85.2047 30.4327C85.1132 30.2725 85.1818 30.0666 85.342 29.9979C85.3649 29.9979 85.3649 29.975 85.3878 29.975C85.548 29.9293 85.7081 29.9521 85.8225 30.0437C86.6692 30.8903 87.5387 31.7369 88.3395 32.6522C91.1769 35.8556 93.4879 39.5167 95.1125 43.4981C95.1583 43.5897 95.1812 43.6812 95.2269 43.7727C95.41 44.2761 95.1125 44.6422 94.5862 44.6193Z" fill="black"/>
<path d="M91.7031 48.006C93.0303 48.0517 94.3345 48.189 95.593 48.6924C95.6159 48.6924 95.6388 48.7153 95.6846 48.7153C97.1032 49.3331 97.6066 50.317 97.2634 51.873C97.0575 52.7883 96.7142 53.6578 96.2337 54.4586C95.9134 55.0078 95.2498 55.0078 94.8837 54.4815C93.9913 53.223 93.0989 51.9645 92.1836 50.7289C91.7718 50.1569 91.2913 49.6306 90.8336 49.0814C90.6506 48.8526 90.4904 48.6467 90.6506 48.3492C90.765 48.0746 91.0624 47.9373 91.337 47.9602C91.4514 48.006 91.5658 48.006 91.7031 48.006Z" fill="black"/>
<path d="M90.0328 60.8886C90.0328 59.0352 90.0328 57.1817 90.0328 55.3283C90.0328 55.0995 90.0557 54.9164 90.3073 54.8249C90.559 54.7334 90.7192 54.8707 90.8336 55.0766C91.4743 56.0605 92.115 57.0444 92.7328 58.0284C93.076 58.5775 93.0074 58.9207 92.5726 59.4013C91.9777 60.042 91.3599 60.6598 90.7421 61.3004C90.5819 61.4606 90.4218 61.575 90.2158 61.4835C89.987 61.392 90.0099 61.186 90.0099 60.9801C90.0099 60.9572 90.0099 60.9115 90.0099 60.8886H90.0328Z" fill="black"/>
<path d="M84.7473 88.095C84.4041 88.095 84.221 87.8433 84.3354 87.5687C84.61 86.9051 84.9075 86.2415 85.2049 85.578C85.2736 85.4636 85.3651 85.3949 85.5024 85.3492C86.0058 85.189 86.5092 85.0517 87.0126 84.8915C87.0584 84.8915 87.0812 84.8686 87.127 84.8686C87.3101 84.8458 87.516 84.8915 87.5618 85.0975C87.5847 85.2576 87.5618 85.4178 87.4702 85.5322C86.8753 86.15 86.2575 86.7449 85.6397 87.3399C85.4338 87.5458 85.2278 87.7289 85.0219 87.9119C84.9075 88.0034 84.816 88.0492 84.7473 88.095Z" fill="black"/>
<path d="M98.1563 59.2182C98.1334 59.4013 98.1106 59.5844 98.0877 59.7674C98.0419 59.9505 97.8817 59.9733 97.7673 59.836C97.4927 59.5386 97.5156 59.081 97.8131 58.8064C97.836 58.7835 97.836 58.7835 97.8589 58.7835C97.9046 58.7377 97.9961 58.7148 98.0648 58.7148C98.1106 58.7377 98.1563 58.8292 98.1563 58.8979C98.1334 58.9894 98.1334 59.1038 98.1563 59.2182Z" fill="black"/>
</svg>
