<svg width="111" height="126" viewBox="0 0 111 126" fill="none" xmlns="http://www.w3.org/2000/svg">
<path fill-rule="evenodd" clip-rule="evenodd" d="M56.429 3.34379C55.8587 2.81907 55.5645 2.80914 55.515 2.80914C55.4656 2.80914 55.1713 2.81907 54.6012 3.34379C54.0159 3.88241 53.3163 4.81175 52.5625 6.2457C51.0578 9.10779 49.6178 13.4339 48.3764 19.0159C46.9807 25.2932 45.8778 32.9658 45.182 41.5546C48.5427 43.1808 51.9987 44.9486 55.5142 46.8469C59.0302 44.9483 62.4867 43.1803 65.848 41.5538C65.1522 32.9654 64.0493 25.2931 62.6536 19.0159C61.4124 13.4339 59.9723 9.10779 58.4677 6.2457C57.7139 4.81175 57.0143 3.88241 56.429 3.34379ZM52.5729 48.4581C49.9911 47.0862 47.4476 45.7886 44.9571 44.5694C44.7684 47.3344 44.6213 50.1846 44.5192 53.105C45.8364 52.3162 47.1729 51.5304 48.5273 50.7489C49.8817 49.9674 51.2308 49.2036 52.5729 48.4581ZM42.4706 40.2637C44.4876 16.7117 49.5674 0 55.515 0C61.4627 0 66.5424 16.7113 68.5594 40.263C89.9766 30.2331 106.998 26.2742 109.971 31.4218C112.945 36.5694 101.004 49.3215 81.6034 62.8428C101.004 76.3642 112.945 89.1163 109.971 94.2639C106.998 99.4115 89.9766 95.4526 68.5594 85.4227C66.5424 108.974 61.4627 125.686 55.515 125.686C49.5674 125.686 44.4876 108.974 42.4706 85.422C21.0528 95.4523 4.03078 99.4117 1.05688 94.2639C-1.91702 89.1163 10.0245 76.3642 29.425 62.8428C10.0245 49.3215 -1.91702 36.5695 1.05688 31.4218C4.03078 26.274 21.0528 30.2334 42.4706 40.2637ZM31.9004 61.1411C24.8049 56.244 18.707 51.4528 13.9649 47.1058C9.74808 43.2404 6.71927 39.8308 4.99122 37.0975C4.12559 35.728 3.67022 34.6579 3.4962 33.8824C3.32667 33.1272 3.46516 32.8686 3.48932 32.827C3.51348 32.7851 3.66896 32.5353 4.40903 32.3041C5.16876 32.0668 6.3243 31.9259 7.94419 31.9903C11.1772 32.1191 15.6466 33.0359 21.1046 34.7527C27.2424 36.6834 34.4428 39.5652 42.2335 43.2574C41.9625 46.9785 41.7665 50.853 41.6537 54.8441C38.2505 56.9379 34.9903 59.0452 31.9004 61.1411ZM31.9004 64.5446C24.8049 69.4417 18.707 74.2329 13.9649 78.5799C9.74808 82.4453 6.71927 85.8549 4.99122 88.5882C4.12559 89.9577 3.67022 91.0278 3.4962 91.8033C3.32667 92.5585 3.46516 92.8171 3.48932 92.8587C3.51333 92.9005 3.66868 93.1502 4.40903 93.3816C5.16876 93.6189 6.3243 93.7598 7.94419 93.6954C11.1772 93.5664 15.6466 92.6498 21.1046 90.9328C27.2424 89.0023 34.4428 86.1205 42.2335 82.4283C41.9625 78.707 41.7665 74.8327 41.6537 70.8415C38.2505 68.7478 34.9903 66.6405 31.9004 64.5446ZM41.5793 67.4904C39.0991 65.9416 36.7025 64.389 34.4003 62.8428C36.7025 61.2967 39.0991 59.7441 41.5793 58.1953C41.5543 59.7299 41.5417 61.2797 41.5417 62.8428C41.5417 64.406 41.5543 65.9558 41.5793 67.4904ZM44.423 69.2421C44.3752 67.1396 44.3508 65.0048 44.3508 62.8428C44.3508 60.6809 44.3752 58.5461 44.423 56.4436C46.2208 55.3512 48.0582 54.2628 49.9312 53.1821C51.8051 52.1008 53.6679 51.0544 55.5142 50.0443C57.3605 51.0544 59.2232 52.1008 61.0971 53.1821C62.9708 54.2632 64.8088 55.352 66.6071 56.4448C66.6548 58.5468 66.6794 60.6814 66.6794 62.8428C66.6794 65.0043 66.6548 67.1389 66.6071 69.241C64.8088 70.3337 62.9708 71.4225 61.0971 72.5036C59.2232 73.5849 57.3605 74.6313 55.5142 75.6414C53.6679 74.6313 51.8051 73.5849 49.9313 72.5036C48.0582 71.423 46.2208 70.3345 44.423 69.2421ZM44.5192 72.5807C44.6213 75.5011 44.7684 78.3513 44.9571 81.1163C47.4476 79.8971 49.9911 78.5993 52.5729 77.2276C51.2308 76.4821 49.8817 75.7183 48.5273 74.9368C47.1729 74.1553 45.8364 73.3695 44.5192 72.5807ZM55.5142 78.8388C51.9987 80.7371 48.5427 82.5049 45.182 84.1309C45.8778 92.7199 46.9807 100.392 48.3764 106.67C49.6178 112.252 51.0578 116.578 52.5625 119.44C53.3163 120.874 54.0159 121.803 54.6012 122.342C55.1713 122.867 55.4656 122.877 55.515 122.877C55.5645 122.877 55.8587 122.867 56.429 122.342C57.0143 121.803 57.7139 120.874 58.4677 119.44C59.9723 116.578 61.4124 112.252 62.6536 106.67C64.0493 100.393 65.1522 92.7203 65.848 84.1318C62.4867 82.5054 59.0302 80.7374 55.5142 78.8388ZM68.7965 82.4292C76.5865 86.1209 83.7863 89.0024 89.9236 90.9328C95.3818 92.6498 99.8511 93.5664 103.084 93.6954C104.704 93.7598 105.859 93.6189 106.619 93.3816C107.36 93.1502 107.515 92.9005 107.539 92.8587C107.563 92.8172 107.702 92.5588 107.532 91.8033C107.358 91.0278 106.903 89.9577 106.037 88.5882C104.309 85.8549 101.28 82.4453 97.0635 78.5799C92.3214 74.2329 86.2234 69.4417 79.128 64.5446C76.0386 66.6401 72.7789 68.7471 69.3764 70.8403C69.2637 74.8323 69.0677 78.7073 68.7965 82.4292ZM79.128 61.1411C86.2234 56.244 92.3214 51.4528 97.0635 47.1058C101.28 43.2404 104.309 39.8308 106.037 37.0975C106.903 35.728 107.358 34.6579 107.532 33.8824C107.702 33.1269 107.563 32.8685 107.539 32.827C107.515 32.7852 107.36 32.5355 106.619 32.3041C105.859 32.0668 104.704 31.9259 103.084 31.9903C99.8511 32.1191 95.3818 33.0359 89.9236 34.7527C83.7863 36.6833 76.5865 39.5648 68.7965 43.2565C69.0677 46.9784 69.2637 50.8534 69.3764 54.8452C72.7789 56.9386 76.0386 59.0456 79.128 61.1411ZM69.4509 58.1964C71.9304 59.7448 74.3264 61.2971 76.628 62.8428C74.3264 64.3886 71.9304 65.9409 69.4509 67.4893C69.4757 65.9551 69.4885 64.4056 69.4885 62.8428C69.4885 61.2801 69.4757 59.7306 69.4509 58.1964ZM66.511 53.1061C66.4089 50.185 66.2617 47.3343 66.0729 44.5686C63.5819 45.788 61.0378 47.086 58.4555 48.4581C59.7976 49.2036 61.1467 49.9674 62.5009 50.7489C63.8561 51.5307 65.1932 52.3169 66.511 53.1061ZM66.0729 81.1171C63.5819 79.8977 61.0378 78.5997 58.4555 77.2276C59.7976 76.4821 61.1467 75.7183 62.5009 74.9368C63.8561 74.155 65.1932 73.3688 66.511 72.5796C66.4089 75.5007 66.2617 78.3514 66.0729 81.1171Z" fill="black"/>
<path fill-rule="evenodd" clip-rule="evenodd" d="M15.348 45.244C17.7887 45.244 19.7672 47.2235 19.7672 49.6652C19.7672 52.107 17.7887 54.0865 15.348 54.0865C12.9074 54.0865 10.929 52.107 10.929 49.6652C10.929 47.2235 12.9074 45.244 15.348 45.244Z" fill="black"/>
<path fill-rule="evenodd" clip-rule="evenodd" d="M85.5819 30.1034C88.0236 30.1034 90.0032 32.0829 90.0032 34.5247C90.0032 36.9665 88.0236 38.946 85.5819 38.946C83.1401 38.946 81.1606 36.9665 81.1606 34.5247C81.1606 32.0829 83.1401 30.1034 85.5819 30.1034Z" fill="black"/>
<path fill-rule="evenodd" clip-rule="evenodd" d="M46.6097 99.498C49.0516 99.498 51.031 101.477 51.031 103.917C51.031 106.358 49.0516 108.336 46.6097 108.336C44.1679 108.336 42.1884 106.358 42.1884 103.917C42.1884 101.477 44.1679 99.498 46.6097 99.498Z" fill="black"/>
<path fill-rule="evenodd" clip-rule="evenodd" d="M55.2688 55.3252C59.4029 55.3252 62.7542 58.6766 62.7542 62.8107C62.7542 66.9448 59.4029 70.2961 55.2688 70.2961C51.1347 70.2961 47.7833 66.9448 47.7833 62.8107C47.7833 58.6766 51.1347 55.3252 55.2688 55.3252Z" fill="black"/>
</svg>
