<svg width="294" height="45" viewBox="0 0 294 45" fill="none" xmlns="http://www.w3.org/2000/svg">
<path fill-rule="evenodd" clip-rule="evenodd" d="M16.8728 35.9751C17.7696 38.7938 20.394 40.7086 23.3602 40.7086H38.1051C41.0713 40.7086 43.6957 38.7938 44.5924 35.9751L49.2028 21.4851H52.0374C55.0034 21.4851 57.628 19.5702 58.5247 16.7516L61.2641 8.14173H50.9887L56.4083 0H30.7326H5.05694L10.4765 8.14173H0.201172L2.94064 16.7516C3.83741 19.5702 6.46187 21.4851 9.42792 21.4851H12.2625L16.8728 35.9751ZM23.5334 21.4851C21.514 21.4851 19.877 19.7132 19.877 17.5273C19.877 15.3414 21.514 13.5695 23.5334 13.5695C25.5527 13.5695 27.1897 15.3414 27.1897 17.5273C27.1897 19.7132 25.5527 21.4851 23.5334 21.4851ZM37.9321 21.4851C39.9514 21.4851 41.5883 19.7132 41.5883 17.5273C41.5883 15.3414 39.9514 13.5695 37.9321 13.5695C35.9126 13.5695 34.2756 15.3414 34.2756 17.5273C34.2756 19.7132 35.9126 21.4851 37.9321 21.4851Z" fill="black"/>
<path fill-rule="evenodd" clip-rule="evenodd" d="M277.203 13.3863H271.15V44.7414H277.203V32.8528C277.958 33.8397 278.887 34.6382 279.991 35.2479C281.122 35.8285 282.312 36.1187 283.562 36.1187C285.303 36.1187 286.914 35.6397 288.396 34.6818C289.905 33.6946 291.095 32.3302 291.967 30.5881C292.836 28.8171 293.272 26.8285 293.272 24.6219C293.272 22.4154 292.836 20.4413 291.967 18.6994C291.095 16.9284 289.905 15.5638 288.396 14.6058C286.914 13.6186 285.303 13.125 283.562 13.125C282.226 13.125 281.007 13.3863 279.903 13.9089C278.801 14.4317 277.9 15.2589 277.203 16.3912V13.3863ZM279.686 19.8751C280.44 19.3815 281.281 19.1348 282.21 19.1348C283.111 19.1348 283.954 19.3815 284.737 19.8751C285.52 20.3687 286.131 21.0364 286.566 21.8785C287.031 22.7203 287.263 23.6349 287.263 24.6219C287.263 25.6091 287.031 26.5237 286.566 27.3655C286.131 28.2075 285.52 28.8753 284.737 29.3688C283.954 29.8624 283.111 30.1091 282.21 30.1091C281.281 30.1091 280.44 29.8624 279.686 29.3688C278.931 28.8753 278.321 28.2075 277.856 27.3655C277.42 26.5237 277.203 25.6091 277.203 24.6219C277.203 23.6349 277.42 22.7203 277.856 21.8785C278.321 21.0364 278.931 20.3687 279.686 19.8751Z" fill="black"/>
<path fill-rule="evenodd" clip-rule="evenodd" d="M255.705 13.125C257.94 13.125 259.783 13.5024 261.234 14.2573C262.717 14.9832 263.818 16.043 264.544 17.4364C265.27 18.83 265.635 20.4995 265.635 22.4446V35.8574H259.754V33.5495C259.203 34.1882 258.303 34.7833 257.055 35.3349C255.836 35.8574 254.586 36.1187 253.309 36.1187C251.683 36.1187 250.289 35.8141 249.128 35.2043C247.997 34.5946 247.139 33.7817 246.559 32.7656C245.98 31.7494 245.688 30.6463 245.688 29.4558C245.688 27.2785 246.486 25.5801 248.084 24.3606C249.681 23.1413 252.148 22.5316 255.486 22.5316H259.754V21.53C259.754 20.3107 259.363 19.4251 258.579 18.8735C257.794 18.2928 256.896 18.0171 255.878 18.0461C254.98 18.0751 254.181 18.351 253.484 18.8735C252.787 19.3671 252.396 20.0928 252.307 21.051H246.168C246.283 19.5994 246.734 18.2784 247.517 17.0881C248.3 15.8686 249.389 14.9106 250.783 14.2137C252.177 13.4881 253.818 13.125 255.705 13.125ZM257.011 31.3284C257.736 31.0091 258.332 30.4866 258.796 29.7607C259.261 29.0058 259.493 28.0478 259.493 26.8865V26.6252L255.878 26.6688C254.747 26.6978 253.789 26.9301 253.004 27.3655C252.25 27.7719 251.871 28.4106 251.871 29.2817C251.871 30.0655 252.104 30.6897 252.568 31.1543C253.033 31.5897 253.73 31.8076 254.659 31.8076C255.502 31.8076 256.285 31.6479 257.011 31.3284Z" fill="black"/>
<path d="M244.827 13.3859H238.729L236.03 22.3134L235.855 22.836C235.798 23.0101 235.74 23.1699 235.68 23.315C235.13 25.2312 234.753 26.6828 234.55 27.6699H234.506C234.012 26.0151 233.49 24.3168 232.937 22.5747L232.851 22.3134L229.933 13.3859H224.315L221.398 22.3134C221.339 22.5457 221.267 22.7781 221.18 23.0101C221.093 23.2135 221.005 23.4312 220.918 23.6635C220.367 25.5507 219.989 26.8861 219.786 27.6699H219.743C219.249 25.7248 218.755 23.9394 218.262 22.3134L215.518 13.3859H209.421L216.868 35.857H222.486L225.448 26.6248C225.506 26.4797 225.55 26.3199 225.579 26.1458C225.636 25.9715 225.694 25.812 225.753 25.6668C226.247 24.0989 226.68 22.6619 227.059 21.3555H227.101C227.167 21.5794 227.663 23.1471 228.583 26.0586L228.8 26.6248L231.762 35.857H237.424L244.827 13.3859Z" fill="black"/>
<path d="M191.524 24.7954C191.524 25.9567 191.756 26.9583 192.221 27.8001C192.714 28.6132 193.382 29.2373 194.224 29.6727C195.066 30.1084 196.039 30.3261 197.142 30.3261C198.129 30.3261 198.956 30.1519 199.624 29.8035C200.292 29.455 200.8 29.005 201.148 28.4535C201.497 27.9019 201.671 27.3211 201.671 26.7114C201.671 25.8406 201.366 25.0857 200.756 24.447C200.147 23.7793 199.261 23.3147 198.1 23.0534L194.485 22.139C191.93 21.5292 189.927 20.4551 188.476 18.9164C187.024 17.3484 186.298 15.4904 186.298 13.3419C186.298 11.5711 186.792 10.0034 187.779 8.63876C188.766 7.24515 190.058 6.17102 191.655 5.41614C193.251 4.63228 194.979 4.24023 196.837 4.24023C198.811 4.24023 200.553 4.70484 202.063 5.63384C203.602 6.53385 204.777 7.75334 205.59 9.29209C206.432 10.8308 206.853 12.5291 206.853 14.3873H200.887C200.887 13.1098 200.48 12.0647 199.668 11.2516C198.884 10.4098 197.853 9.98878 196.576 9.98878C195.734 9.98878 194.993 10.1629 194.355 10.5114C193.745 10.8308 193.28 11.2516 192.961 11.7742C192.642 12.2678 192.482 12.7904 192.482 13.3419C192.482 14.0388 192.714 14.663 193.179 15.2145C193.643 15.7371 194.398 16.1291 195.443 16.3904L198.971 17.2615C201.961 18.0163 204.197 19.163 205.677 20.7018C207.158 22.2115 207.898 24.1857 207.898 26.6244C207.898 28.4824 207.434 30.1373 206.505 31.5889C205.605 33.0115 204.342 34.1292 202.716 34.9423C201.09 35.7261 199.247 36.118 197.185 36.118C195.037 36.118 193.063 35.6536 191.263 34.7246C189.492 33.7954 188.069 32.4745 186.995 30.7615C185.95 29.0486 185.427 27.0599 185.427 24.7954H191.524Z" fill="black"/>
<path d="M161.837 35.8569L170.416 4.50195H164.232L160.008 20.6148C159.688 21.8923 159.383 23.2279 159.093 24.6213C159.006 24.9698 158.933 25.3036 158.875 25.6231L158.701 26.4939H158.658C158.309 24.9844 158.004 23.7069 157.743 22.6618L157.482 21.6166C157.395 21.2682 157.307 20.9343 157.221 20.6148L152.866 4.50195H146.638L142.327 20.6148C142.24 20.9923 142.138 21.3843 142.022 21.7907C141.935 22.1682 141.833 22.56 141.717 22.9664C141.572 23.6051 141.427 24.2295 141.282 24.839C141.136 25.4198 141.006 25.9713 140.89 26.4939H140.846C140.788 26.0295 140.701 25.5503 140.585 25.0569C140.469 24.5633 140.353 24.0551 140.236 23.5326C140.12 23.01 140.004 22.502 139.888 22.0084C139.772 21.5148 139.656 21.0505 139.54 20.6148L135.272 4.50195H129.088L137.667 35.8569H143.894L148.206 19.744C148.351 19.2504 148.482 18.7422 148.598 18.2197L149.033 16.5648C149.149 16.0422 149.266 15.5342 149.382 15.0406C149.527 14.518 149.657 14.0391 149.774 13.6034H149.817C149.933 14.068 150.049 14.5616 150.166 15.0842L150.514 16.6519C150.659 17.2035 150.79 17.7407 150.906 18.2632C151.051 18.7858 151.182 19.2794 151.298 19.744L155.609 35.8569H161.837Z" fill="black"/>
<path fill-rule="evenodd" clip-rule="evenodd" d="M118.324 36.1187C116.292 36.1187 114.419 35.6108 112.706 34.5946C110.993 33.5495 109.629 32.1558 108.613 30.414C107.625 28.643 107.132 26.7124 107.132 24.6219C107.132 22.5316 107.625 20.6154 108.613 18.8735C109.629 17.1025 110.993 15.7089 112.706 14.6929C114.419 13.6476 116.292 13.125 118.324 13.125H118.367C120.4 13.125 122.258 13.6476 123.942 14.6929C125.655 15.7089 127.005 17.1025 127.992 18.8735C129.008 20.6446 129.516 22.5606 129.516 24.6219C129.516 26.6832 129.008 28.5994 127.992 30.3704C127.005 32.1415 125.655 33.5495 123.942 34.5946C122.258 35.6108 120.4 36.1187 118.367 36.1187H118.324ZM118.367 30.1091C119.297 30.1091 120.153 29.8624 120.937 29.3688C121.721 28.8753 122.331 28.2219 122.766 27.4091C123.231 26.5673 123.463 25.638 123.463 24.6219C123.463 23.6349 123.231 22.7203 122.766 21.8785C122.301 21.0364 121.677 20.3687 120.893 19.8751C120.109 19.3815 119.267 19.1348 118.367 19.1348H118.324C117.366 19.1348 116.495 19.3815 115.711 19.8751C114.927 20.3687 114.303 21.0364 113.838 21.8785C113.374 22.7203 113.142 23.6349 113.142 24.6219C113.142 25.6091 113.374 26.5237 113.838 27.3655C114.303 28.2075 114.927 28.8753 115.711 29.3688C116.495 29.8624 117.366 30.1091 118.324 30.1091H118.367Z" fill="black"/>
<path d="M81.9683 33.9841C84.407 35.4067 87.0635 36.118 89.9379 36.118C92.4636 36.118 94.7282 35.5954 96.7313 34.5502C98.7637 33.4761 100.39 32.0825 101.609 30.3696C102.828 28.6276 103.598 26.755 103.917 24.7518H97.6895C97.167 26.4067 96.1944 27.7132 94.7718 28.6712C93.3492 29.6294 91.7379 30.1084 89.9379 30.1084C88.1378 30.1084 86.4829 29.6583 84.9732 28.7583C83.4926 27.8583 82.3023 26.6534 81.4023 25.1437C80.5023 23.6341 80.0523 21.9792 80.0523 20.1792C80.0523 18.3792 80.5023 16.7243 81.4023 15.2145C82.3023 13.705 83.4926 12.5001 84.9732 11.6001C86.4829 10.7001 88.1378 10.2501 89.9379 10.2501C91.07 10.2501 92.1733 10.4968 93.2474 10.9903C94.3218 11.455 95.2508 12.1081 96.0346 12.9501C96.8185 13.7919 97.3411 14.7355 97.6024 15.7807H103.873C103.554 13.9227 102.785 12.1081 101.565 10.3372C100.375 8.56619 98.7783 7.11462 96.7749 5.9823C94.7718 4.821 92.4926 4.24023 89.9379 4.24023C87.0635 4.24023 84.407 4.96613 81.9683 6.4177C79.5587 7.84029 77.6279 9.77108 76.1764 12.2098C74.7538 14.6486 74.0425 17.305 74.0425 20.1792C74.0425 23.0534 74.7538 25.7098 76.1764 28.1486C77.6279 30.5873 79.5587 32.5325 81.9683 33.9841Z" fill="black"/>
</svg>
