<svg width="294" height="56" viewBox="0 0 294 56" fill="none" xmlns="http://www.w3.org/2000/svg">
<path d="M28.0624 0C20.0753 0 0.404297 19.6706 0.404297 27.658C0.404297 35.6455 20.0753 55.3164 28.0624 55.3164C36.0493 55.3164 55.7207 35.6452 55.7207 27.658C55.7207 19.6709 36.0496 0 28.0624 0ZM23.7523 43.4739C20.3843 42.556 11.329 26.716 12.2469 23.3479C13.1649 19.9797 29.0046 10.9246 32.3726 11.8425C35.7408 12.7603 44.7962 28.6001 43.8783 31.9683C42.9604 35.3367 27.1204 44.3918 23.7523 43.4739Z" fill="black"/>
<path d="M93.9514 33.9092V33.8991L78.5092 5.2369C78.2054 4.67271 77.3654 4.80782 77.2512 5.43925L69.5609 48.0073C69.4854 48.4247 69.804 48.8086 70.2251 48.8086H76.1751C76.5018 48.8086 76.7814 48.5735 76.8396 48.2503L81.3181 23.4125L93.3561 46.5072C93.609 46.9923 94.2993 46.9923 94.5521 46.5072L106.59 23.4125L111.068 48.2503C111.127 48.5735 111.406 48.8086 111.733 48.8086H117.683C118.104 48.8086 118.423 48.4247 118.347 48.0073L110.657 5.43925C110.543 4.80782 109.703 4.67271 109.399 5.2369L93.9514 33.9092Z" fill="black"/>
<path d="M143.604 5.69434C131.272 5.69434 121.612 15.3398 121.612 27.6556C121.612 39.9714 131.272 49.6221 143.604 49.6221C155.904 49.6221 165.54 39.974 165.54 27.6556C165.54 15.3371 155.904 5.69434 143.604 5.69434ZM143.604 42.2687C135.563 42.2687 129.262 35.8491 129.262 27.6556C129.262 19.462 135.563 13.0478 143.604 13.0478C151.614 13.0478 157.89 19.4647 157.89 27.6556C157.89 35.8465 151.614 42.2687 143.604 42.2687Z" fill="black"/>
<path d="M200.199 32.618L174.055 5.09751C173.629 4.64869 172.861 4.94375 172.861 5.55634V47.7721C172.861 48.1444 173.17 48.4461 173.55 48.4461H179.871C180.251 48.4461 180.56 48.1444 180.56 47.7721V22.6456L206.646 50.2179C207.072 50.6681 207.841 50.3733 207.841 49.7602V7.54424C207.841 7.17192 207.532 6.87011 207.152 6.87011H200.888C200.508 6.87011 200.199 7.17192 200.199 7.54424V32.618Z" fill="black"/>
<path d="M214.212 48.8086H220.874C221.138 48.8086 221.378 48.6544 221.488 48.4135L226.478 37.5554H242.436L247.314 48.4085C247.423 48.6519 247.665 48.8086 247.931 48.8086H255.159C255.658 48.8086 255.985 48.2844 255.768 47.8329L235.295 5.26489C235.049 4.75285 234.323 4.75285 234.076 5.26489L213.603 47.8329C213.386 48.2844 213.714 48.8086 214.212 48.8086ZM229.607 30.8183L234.566 20.0049L239.433 30.8183H229.607Z" fill="black"/>
<path d="M272.525 6.50781H262.212C261.835 6.50781 261.53 6.81491 261.53 7.19368V48.1225C261.53 48.5013 261.835 48.8086 262.212 48.8086H272.525C285.311 48.8086 293.256 40.7039 293.256 27.6555C293.256 14.607 285.311 6.50781 272.525 6.50781ZM272.525 41.5513H269.2V13.7086H272.525C280.826 13.7086 285.587 18.7924 285.587 27.6555C285.587 36.4863 280.826 41.5513 272.525 41.5513Z" fill="black"/>
</svg>
