<svg width="118" height="118" viewBox="0 0 118 118" fill="none" xmlns="http://www.w3.org/2000/svg">
<path d="M59.2139 117.141C91.5614 117.141 117.784 90.9178 117.784 58.5703C117.784 26.2228 91.5614 0 59.2139 0C26.8664 0 0.643555 26.2228 0.643555 58.5703C0.643555 90.9178 26.8664 117.141 59.2139 117.141Z" fill="#FF0420"/>
<path d="M42.1349 74.127C38.6441 74.127 35.7858 73.307 33.5602 71.667C31.3579 70.0036 30.2568 67.614 30.2568 64.5449C30.2568 63.8889 30.3271 63.1158 30.4677 62.1786C30.8425 60.0701 31.3814 57.5399 32.0842 54.5645C34.0756 46.5052 39.2298 42.4756 47.5233 42.4756C49.7724 42.4756 51.8107 42.8504 53.5912 43.6236C55.3718 44.3498 56.7774 45.4744 57.8083 46.9738C58.8391 48.4498 59.3545 50.2069 59.3545 52.2451C59.3545 52.8542 59.2843 53.6274 59.1437 54.5645C58.6985 57.165 58.1831 59.7187 57.5506 62.1786C56.5197 66.1848 54.7626 69.2071 52.2324 71.1985C49.7256 73.1664 46.3519 74.127 42.1349 74.127ZM42.7674 67.8014C44.4074 67.8014 45.7897 67.3094 46.9376 66.3488C48.109 65.3883 48.9524 63.9123 49.4444 61.8975C50.1239 59.133 50.6393 56.7433 50.9907 54.6816C51.1078 54.0725 51.1781 53.4399 51.1781 52.784C51.1781 50.1132 49.7959 48.7777 47.0079 48.7777C45.3679 48.7777 43.9623 49.2697 42.7908 50.2303C41.6429 51.1908 40.8229 52.6668 40.3309 54.6816C39.7921 56.6496 39.2766 59.0393 38.7378 61.8975C38.6206 62.4832 38.5504 63.0923 38.5504 63.7483C38.5269 66.466 39.956 67.8014 42.7674 67.8014Z" fill="white"/>
<path d="M61.3926 73.7055C61.0646 73.7055 60.8303 73.6117 60.6429 73.4009C60.5023 73.1666 60.4555 72.9089 60.5023 72.6043L66.5702 44.022C66.6171 43.694 66.7811 43.4363 67.0622 43.2255C67.3199 43.0146 67.601 42.9209 67.9056 42.9209H79.5962C82.8527 42.9209 85.4533 43.6003 87.4212 44.9357C89.4126 46.2945 90.42 48.2391 90.42 50.7927C90.42 51.519 90.3263 52.2922 90.1623 53.0887C89.4361 56.4624 87.9601 58.9457 85.711 60.5623C83.5087 62.1788 80.4865 62.9754 76.6443 62.9754H70.717L68.7022 72.6043C68.6319 72.9323 68.4913 73.19 68.2102 73.4009C67.9525 73.6117 67.6713 73.7055 67.3668 73.7055H61.3926ZM76.9489 56.9075C78.1905 56.9075 79.2448 56.5795 80.1585 55.9001C81.0956 55.2207 81.7048 54.2601 82.0093 52.995C82.103 52.503 82.1499 52.0579 82.1499 51.683C82.1499 50.8396 81.8922 50.1836 81.4002 49.7385C80.9082 49.2699 80.0414 49.0356 78.8465 49.0356H73.5752L71.9118 56.9075H76.9489Z" fill="white"/>
</svg>
