<svg width="107" height="118" viewBox="0 0 107 118" fill="none" xmlns="http://www.w3.org/2000/svg">
<path d="M104.283 62.1638C105.926 60.5234 106.982 58.18 106.336 55.075C105.808 52.4387 103.578 50.271 100.997 50.0367C99.295 49.861 97.8868 50.3296 96.3025 51.1498C96.3025 51.1498 92.2538 48.8064 86.7382 45.5842C91.9017 42.5964 96.7719 39.7843 100.586 37.5581C101.466 37.0308 102.992 36.0349 104.283 34.746C105.926 33.1056 106.982 30.7622 106.336 27.6572C105.808 25.0209 103.578 22.8532 100.997 22.6189C99.295 22.4431 97.8868 22.9118 96.3025 23.732C96.3025 23.732 56.8129 0.766616 56.3435 0.532276C55.8741 0.23935 55.4046 0.00500988 54.7592 0.00500988C54.0551 -0.0535752 53.4096 0.415106 52.9402 0.708031C36.3933 10.1988 17.4993 21.2128 3.2408 29.4147C2.83006 29.6491 2.41932 29.942 2.00858 30.1763C1.42181 30.5864 0.893721 31.0551 0.893721 31.8167C0.893721 32.5198 1.36314 32.9884 1.77388 33.2814C2.18461 33.5743 2.30197 33.6329 3.12345 34.1016C6.292 35.9177 14.3308 40.6045 22.7216 45.4671C15.739 49.5094 9.04982 53.4346 3.18212 56.8326C2.77138 57.0669 2.36065 57.3598 1.94991 57.5942C1.36314 58.0043 0.835044 58.473 0.835044 59.2346C0.835044 59.9376 1.30446 60.4063 1.7152 60.6992C2.12594 60.9921 2.24329 61.0507 3.06477 61.5194C6.23333 63.3355 14.2721 68.0223 22.6629 72.8849C15.6803 76.9273 8.99115 80.8525 3.12345 84.2504C2.71271 84.4848 2.30197 84.7777 1.89123 85.012C1.30446 85.4221 0.776367 85.8908 0.776367 86.6524C0.776367 87.3554 1.24578 87.8241 1.65652 88.117C2.06726 88.41 2.18461 88.4685 3.00609 88.9372C9.40189 92.6867 35.5718 107.86 45.1362 113.426C46.075 113.953 48.07 115.125 49.0675 115.593C51.0039 116.472 53.4683 117.292 55.522 117.117C58.5145 116.882 60.5682 115.476 63.3847 113.836C73.0664 108.212 90.4935 98.0179 100.41 92.3352C101.29 91.8079 102.816 90.812 104.107 89.5231C105.75 87.8827 106.806 85.5393 106.16 82.4343C105.632 79.798 103.402 77.6303 100.821 77.396C99.119 77.2202 97.7108 77.6889 96.1265 78.5091C96.1265 78.5091 92.0778 76.1657 86.5621 72.9435C91.7257 69.9557 96.5959 67.1436 100.41 64.9173C101.407 64.5072 102.933 63.5113 104.283 62.1638ZM5.76391 31.8167C5.76391 31.3481 5.99862 31.0551 6.35068 30.8794L53.4683 3.52012C54.2311 3.05144 55.2286 3.05144 55.9914 3.52012L93.486 25.3138C93.486 25.3138 66.0252 41.2489 55.9327 47.1075C55.1113 47.5761 53.527 48.5721 52.9989 49.0408C52.2361 49.6266 51.708 50.4468 51.4733 51.4428C50.9452 53.4346 51.884 55.0164 52.9989 55.6023C54.6418 56.4811 55.9327 55.8366 55.8741 55.0164C54.6418 54.5478 54.3485 53.6104 54.5245 52.6145C54.7005 51.7357 55.346 51.0327 56.4608 50.9155C58.0451 50.6811 59.512 51.6771 59.9228 53.7276C60.3335 55.7195 59.5707 57.477 58.2211 58.4144C55.522 60.4063 52.0014 59.3517 49.5956 57.9457C47.3659 56.6568 14.6828 37.6752 6.35068 32.8127C6.0573 32.6369 5.76391 32.344 5.76391 31.8167ZM93.5447 80.208C93.5447 80.208 66.0839 96.1432 55.9914 102.002C55.1699 102.47 53.5857 103.466 53.0576 103.935C52.2948 104.521 51.7667 105.341 51.532 106.337C51.0039 108.329 51.9427 109.911 53.0576 110.497C54.7005 111.375 55.9914 110.731 55.9327 109.911C54.7005 109.442 54.4071 108.505 54.5832 107.509C54.7592 106.63 55.4046 105.927 56.5195 105.81C58.1038 105.575 59.5707 106.571 59.9815 108.622C60.3922 110.614 59.6294 112.371 58.2798 113.309C55.5807 115.301 52.0601 114.246 49.6543 112.84C47.4246 111.551 14.7415 92.5695 6.40936 87.7069C6.0573 87.5312 5.76391 87.2383 5.82259 86.711C5.82259 86.2423 6.0573 85.9494 6.40936 85.7736L25.6554 74.5839C24.7753 74.0566 40.5594 83.2545 45.3709 86.0666C46.3097 86.5938 48.3047 87.7655 49.3022 88.2342C51.2386 89.113 53.703 89.9332 55.7567 89.7574C58.7492 89.5231 60.8029 88.117 63.6194 86.4767C69.5458 83.0201 84.9192 74.1152 84.039 74.6425L93.5447 80.208ZM55.9327 74.5839C55.1113 75.0526 53.527 76.0485 52.9989 76.5172C52.2361 77.103 51.708 77.9232 51.4733 78.9192C50.9452 80.9111 51.884 82.4929 52.9989 83.0787C54.6418 83.9575 55.9327 83.3131 55.8741 82.4929C54.6418 82.0242 54.3485 81.0868 54.5245 80.0909C54.7005 79.2121 55.346 78.5091 56.4608 78.3919C58.0451 78.1576 59.512 79.1535 59.9228 81.204C60.3335 83.1959 59.5707 84.9534 58.2211 85.8908C55.522 87.8827 52.0014 86.8282 49.5956 85.4221C47.3659 84.1332 14.6828 65.1517 6.35068 60.2891C5.99862 60.1133 5.70523 59.8204 5.76391 59.2932C5.76391 58.8245 5.99862 58.5316 6.35068 58.3558L25.5967 47.166C33.2834 51.7357 40.9701 56.1881 45.2535 58.7073C46.1924 59.2346 48.1874 60.4063 49.1849 60.875C51.1212 61.7537 53.5857 62.5739 55.6394 62.3982C58.6319 62.1638 60.6856 60.7578 63.5021 59.1174C69.4285 55.6609 84.7431 46.7559 83.9217 47.2832L93.5447 52.8488C93.5447 52.7902 66.0839 68.7254 55.9327 74.5839Z" fill="black"/>
</svg>
