<svg width="255" height="51" viewBox="0 0 255 51" fill="none" xmlns="http://www.w3.org/2000/svg">
<path fill-rule="evenodd" clip-rule="evenodd" d="M13.9308 10.9828H25.4106V0.0298468H14.1501C2.96277 -0.272303 1.13477 1.5406 0.83185 13.7777V16.8746C0.696058 27.8277 2.96277 30.9247 11.2253 30.6982H13.2727V39.4605H1.06164V50.4134H13.1996C21.9739 50.4134 22.559 50.2625 24.7525 47.6186C26.2149 45.2013 26.5075 43.6151 26.7268 36.2124V33.1153C26.7268 22.4646 24.5331 19.5942 16.2706 19.7453H13.9308V10.9828ZM47.2005 10.9826H53.1233V0.029679H28.1894V10.9826H34.1122V50.4134H47.2005V10.9826ZM69.0525 50.4134H55.964V10.3028C56.1102 1.38935 57.7919 0.029679 69.136 0.029679H74.4738C85.8074 0.029679 87.4891 1.31381 87.6353 10.3028V50.4134H74.547V39.7624H69.063V50.4134H69.0525ZM74.5366 28.5828V15.2882C74.5366 12.0402 73.6591 10.6049 71.758 10.6049C69.8568 10.6049 69.0525 12.1157 69.0525 15.2882V28.5828H74.5366ZM124.039 9.77395C123.673 1.08712 122.065 -0.197007 112.34 0.0295948H92.3778V50.4131H105.466V30.6979H107.148C109.927 30.7734 111.023 32.0576 110.95 35.2302V41.953C110.95 45.5033 111.243 48.2226 111.974 50.4131H125.062C124.477 48.2982 124.039 45.2767 124.039 41.953V34.1725C124.185 28.5074 122.357 26.09 116.873 24.5793C122.357 24.126 124.258 20.9536 124.039 13.0221V9.77395ZM111.023 15.4393C111.023 18.9896 110.365 19.7448 107.294 19.7448H105.466V10.9826H107.294C110.073 10.9826 111.023 12.1156 111.023 15.4393ZM159.952 39.2339C160.098 49.2802 158.562 50.6401 147.009 50.4134H141.598C129.168 50.5645 128.291 49.6581 128.437 36.8166L128.364 32.8887V17.7812C128.499 1.38948 129.596 -0.0457433 141.588 0.0298047H159.941V12.418C158.406 11.6626 154.75 11.1338 150.436 10.9828H145.829C141.807 10.9828 141.442 11.3604 141.442 15.5906V33.4929C141.369 38.7806 141.734 39.3848 144.732 39.4605H146.853V27.2988C146.853 25.2593 146.487 23.522 145.829 21.6336H159.941V39.2339H159.952ZM164.401 50.4134H177.49V39.7624H182.974V50.4134H196.062V10.3028C195.916 1.31381 194.234 0.029679 182.901 0.029679H177.563C166.229 0.029679 164.548 1.38935 164.401 10.3028V50.4134ZM182.974 15.2882V28.5828H177.49V15.2882C177.49 12.1157 178.294 10.6049 180.195 10.6049C182.096 10.6049 182.974 12.0402 182.974 15.2882ZM225.896 0.029679L215 39.4603H226.7L225.236 50.4134H199.06L210.102 10.9826H199.206L200.742 0.029679H225.896ZM242.567 10.9825H254.631V0.0295527H242.42C231.013 -0.121522 229.77 1.38925 229.479 16.1946V32.2841C229.404 39.6868 229.99 45.1256 231.013 46.8629C232.988 50.111 233.72 50.3377 242.42 50.4131H254.631V39.4603H242.567V30.6977H254.631V19.7448H242.567V10.9825Z" fill="url(#paint0_linear_56_2271)"/>
<defs>
<linearGradient id="paint0_linear_56_2271" x1="1.07881" y1="-8.59988" x2="267.104" y2="30.1045" gradientUnits="userSpaceOnUse">
<stop stop-color="#FFF59E"/>
<stop offset="0.635417" stop-color="#81EFD9"/>
<stop offset="1" stop-color="#6B9BE3"/>
</linearGradient>
</defs>
</svg>
